<svg xmlns="http://www.w3.org/2000/svg" viewBox="0 0 800 480">
  <rect width="800" height="480" fill="#060f06"/>
  <!-- Top bar -->
  <rect width="800" height="44" fill="#0c1a0c"/>
  <circle cx="20" cy="22" r="7" fill="#ff5f57"/>
  <circle cx="42" cy="22" r="7" fill="#febc2e"/>
  <circle cx="64" cy="22" r="7" fill="#28c840"/>
  <text x="400" y="28" font-family="monospace" font-size="13" fill="#4ade80" text-anchor="middle" font-weight="600">POS — Casa del Kumis · Sucursal #12</text>
  <!-- Left panel: product grid -->
  <rect x="12" y="56" width="468" height="408" rx="8" fill="#0a140a"/>
  <text x="24" y="80" font-family="monospace" font-size="11" fill="#6ee7a0">PRODUCTOS</text>
  <!-- Row 1 -->
  <rect x="24" y="90" width="138" height="108" rx="6" fill="#0f1f0f" stroke="#1a3d1a" stroke-width="1"/>
  <rect x="24" y="90" width="138" height="60" rx="6" fill="#1a3d1a"/>
  <text x="93" y="130" font-family="monospace" font-size="28" text-anchor="middle">🥛</text>
  <text x="93" y="168" font-family="monospace" font-size="10" fill="#a7f3b8" text-anchor="middle">Kumis 250ml</text>
  <text x="93" y="184" font-family="monospace" font-size="11" fill="#4ade80" text-anchor="middle" font-weight="700">$2.500</text>
  <rect x="174" y="90" width="138" height="108" rx="6" fill="#0f1f0f" stroke="#1a3d1a" stroke-width="1"/>
  <rect x="174" y="90" width="138" height="60" rx="6" fill="#1a3d1a"/>
  <text x="243" y="130" font-family="monospace" font-size="28" text-anchor="middle">🧴</text>
  <text x="243" y="168" font-family="monospace" font-size="10" fill="#a7f3b8" text-anchor="middle">Kumis 1L</text>
  <text x="243" y="184" font-family="monospace" font-size="11" fill="#4ade80" text-anchor="middle" font-weight="700">$6.800</text>
  <rect x="324" y="90" width="138" height="108" rx="6" fill="#0f1f0f" stroke="#1a3d1a" stroke-width="1"/>
  <rect x="324" y="90" width="138" height="60" rx="6" fill="#1a3d1a"/>
  <text x="393" y="130" font-family="monospace" font-size="28" text-anchor="middle">🍶</text>
  <text x="393" y="168" font-family="monospace" font-size="10" fill="#a7f3b8" text-anchor="middle">Maizena 500g</text>
  <text x="393" y="184" font-family="monospace" font-size="11" fill="#4ade80" text-anchor="middle" font-weight="700">$4.200</text>
  <!-- Row 2 -->
  <rect x="24" y="208" width="138" height="108" rx="6" fill="#0f1f0f" stroke="#1a3d1a" stroke-width="1"/>
  <rect x="24" y="208" width="138" height="60" rx="6" fill="#1a3d1a"/>
  <text x="93" y="248" font-family="monospace" font-size="28" text-anchor="middle">🧀</text>
  <text x="93" y="286" font-family="monospace" font-size="10" fill="#a7f3b8" text-anchor="middle">Queso 250g</text>
  <text x="93" y="302" font-family="monospace" font-size="11" fill="#4ade80" text-anchor="middle" font-weight="700">$5.900</text>
  <rect x="174" y="208" width="138" height="108" rx="6" fill="#0f1f0f" stroke="#1a3d1a" stroke-width="1"/>
  <rect x="174" y="208" width="138" height="60" rx="6" fill="#1a3d1a"/>
  <text x="243" y="248" font-family="monospace" font-size="28" text-anchor="middle">🥜</text>
  <text x="243" y="286" font-family="monospace" font-size="10" fill="#a7f3b8" text-anchor="middle">Maní 100g</text>
  <text x="243" y="302" font-family="monospace" font-size="11" fill="#4ade80" text-anchor="middle" font-weight="700">$1.800</text>
  <rect x="324" y="208" width="138" height="108" rx="6" fill="#0f1f0f" stroke="#1a3d1a" stroke-width="1"/>
  <rect x="324" y="208" width="138" height="60" rx="6" fill="#1a3d1a"/>
  <text x="393" y="248" font-family="monospace" font-size="28" text-anchor="middle">🫙</text>
  <text x="393" y="286" font-family="monospace" font-size="10" fill="#a7f3b8" text-anchor="middle">Avena 1L</text>
  <text x="393" y="302" font-family="monospace" font-size="11" fill="#4ade80" text-anchor="middle" font-weight="700">$5.200</text>
  <!-- Right panel: order -->
  <rect x="492" y="56" width="296" height="408" rx="8" fill="#0a140a"/>
  <text x="640" y="80" font-family="monospace" font-size="12" fill="#4ade80" text-anchor="middle" font-weight="700">ORDEN ACTUAL</text>
  <!-- Items -->
  <rect x="504" y="88" width="272" height="38" rx="5" fill="#0f1f0f"/>
  <text x="516" y="112" font-family="monospace" font-size="11" fill="#c4f5c4">Kumis 250ml × 3</text>
  <text x="764" y="112" font-family="monospace" font-size="11" fill="#4ade80" text-anchor="end">$7.500</text>
  <rect x="504" y="132" width="272" height="38" rx="5" fill="#0f1f0f"/>
  <text x="516" y="156" font-family="monospace" font-size="11" fill="#c4f5c4">Kumis 1L × 1</text>
  <text x="764" y="156" font-family="monospace" font-size="11" fill="#4ade80" text-anchor="end">$6.800</text>
  <rect x="504" y="176" width="272" height="38" rx="5" fill="#0f1f0f"/>
  <text x="516" y="200" font-family="monospace" font-size="11" fill="#c4f5c4">Maizena 500g × 2</text>
  <text x="764" y="200" font-family="monospace" font-size="11" fill="#4ade80" text-anchor="end">$8.400</text>
  <line x1="504" y1="228" x2="776" y2="228" stroke="#1a3d1a" stroke-width="1"/>
  <text x="516" y="252" font-family="monospace" font-size="11" fill="#6ee7a0">Subtotal</text>
  <text x="764" y="252" font-family="monospace" font-size="11" fill="#c4f5c4" text-anchor="end">$22.700</text>
  <text x="516" y="278" font-family="monospace" font-size="14" fill="#4ade80" font-weight="700">TOTAL</text>
  <text x="764" y="278" font-family="monospace" font-size="14" fill="#4ade80" text-anchor="end" font-weight="700">$22.700</text>
  <!-- Credinbanco badge -->
  <rect x="504" y="294" width="272" height="32" rx="5" fill="#0a2a0a" stroke="#22c55e" stroke-width="1"/>
  <text x="640" y="315" font-family="monospace" font-size="10" fill="#4ade80" text-anchor="middle">● Credinbanco API · Datáfono activo</text>
  <!-- Buttons -->
  <rect x="504" y="336" width="272" height="44" rx="8" fill="#22c55e"/>
  <text x="640" y="364" font-family="monospace" font-size="13" fill="white" text-anchor="middle" font-weight="700">💳  COBRAR CON DATÁFONO</text>
  <rect x="504" y="390" width="130" height="36" rx="6" fill="#0f1f0f" stroke="#22c55e" stroke-width="1"/>
  <text x="569" y="413" font-family="monospace" font-size="11" fill="#4ade80" text-anchor="middle">EFECTIVO</text>
  <rect x="646" y="390" width="130" height="36" rx="6" fill="#0f1f0f" stroke="#22c55e" stroke-width="1"/>
  <text x="711" y="413" font-family="monospace" font-size="11" fill="#4ade80" text-anchor="middle">TRANSFERENCIA</text>
  <!-- Footer -->
  <rect x="0" y="440" width="800" height="40" fill="#0c1a0c"/>
  <text x="20" y="465" font-family="monospace" font-size="10" fill="#4ade80">● React · SQL · Credinbanco API · 18 sucursales en producción</text>
</svg>
