<svg xmlns="http://www.w3.org/2000/svg" viewBox="0 0 800 480">
  <rect width="800" height="480" fill="#060910"/>
  <!-- Top bar -->
  <rect width="800" height="44" fill="#0a0f1c"/>
  <circle cx="20" cy="22" r="7" fill="#ff5f57"/>
  <circle cx="42" cy="22" r="7" fill="#febc2e"/>
  <circle cx="64" cy="22" r="7" fill="#28c840"/>
  <text x="400" y="28" font-family="monospace" font-size="13" fill="#60a5fa" text-anchor="middle" font-weight="600">Software de Punteo — Conciliación Bancaria</text>
  <!-- Summary cards -->
  <rect x="12" y="56" width="184" height="80" rx="8" fill="#0d1528" stroke="#1e3a6e" stroke-width="1"/>
  <text x="24" y="78" font-family="monospace" font-size="10" fill="#94a3b8">TOTAL VAUCHERS</text>
  <text x="24" y="106" font-family="monospace" font-size="22" fill="#60a5fa" font-weight="700">1.248</text>
  <rect x="208" y="56" width="184" height="80" rx="8" fill="#0d1528" stroke="#1e3a6e" stroke-width="1"/>
  <text x="220" y="78" font-family="monospace" font-size="10" fill="#94a3b8">CONCILIADOS</text>
  <text x="220" y="106" font-family="monospace" font-size="22" fill="#22c55e" font-weight="700">1.231</text>
  <rect x="404" y="56" width="184" height="80" rx="8" fill="#0d1528" stroke="#1e3a6e" stroke-width="1"/>
  <text x="416" y="78" font-family="monospace" font-size="10" fill="#94a3b8">DIFERENCIAS</text>
  <text x="416" y="106" font-family="monospace" font-size="22" fill="#f97316" font-weight="700">17</text>
  <rect x="600" y="56" width="188" height="80" rx="8" fill="#0d1528" stroke="#1e3a6e" stroke-width="1"/>
  <text x="612" y="78" font-family="monospace" font-size="10" fill="#94a3b8">VALOR TOTAL</text>
  <text x="612" y="106" font-family="monospace" font-size="18" fill="#60a5fa" font-weight="700">$48.2M</text>
  <!-- Table -->
  <rect x="12" y="148" width="776" height="280" rx="8" fill="#0a0f1c" stroke="#1e3a6e" stroke-width="1"/>
  <!-- Table header -->
  <rect x="12" y="148" width="776" height="36" rx="8" fill="#0d1528"/>
  <text x="28" y="172" font-family="monospace" font-size="10" fill="#60a5fa" font-weight="700">FECHA</text>
  <text x="130" y="172" font-family="monospace" font-size="10" fill="#60a5fa" font-weight="700">REFERENCIA</text>
  <text x="290" y="172" font-family="monospace" font-size="10" fill="#60a5fa" font-weight="700">VAUCHER</text>
  <text x="430" y="172" font-family="monospace" font-size="10" fill="#60a5fa" font-weight="700">EXTRACTO</text>
  <text x="570" y="172" font-family="monospace" font-size="10" fill="#60a5fa" font-weight="700">DIFERENCIA</text>
  <text x="700" y="172" font-family="monospace" font-size="10" fill="#60a5fa" font-weight="700">ESTADO</text>
  <!-- Rows -->
  <rect x="24" y="190" width="752" height="30" rx="4" fill="#0d1528"/>
  <text x="28" y="210" font-family="monospace" font-size="10" fill="#94a3b8">2025-04-01</text>
  <text x="130" y="210" font-family="monospace" font-size="10" fill="#c4d4f0">TRX-00441</text>
  <text x="290" y="210" font-family="monospace" font-size="10" fill="#c4d4f0">$125.000</text>
  <text x="430" y="210" font-family="monospace" font-size="10" fill="#c4d4f0">$125.000</text>
  <text x="570" y="210" font-family="monospace" font-size="10" fill="#22c55e">$0</text>
  <rect x="698" y="196" width="64" height="18" rx="9" fill="#14532d"/>
  <text x="730" y="209" font-family="monospace" font-size="9" fill="#4ade80" text-anchor="middle">✓ OK</text>
  <rect x="24" y="226" width="752" height="30" rx="4" fill="#060910"/>
  <text x="28" y="246" font-family="monospace" font-size="10" fill="#94a3b8">2025-04-01</text>
  <text x="130" y="246" font-family="monospace" font-size="10" fill="#c4d4f0">TRX-00442</text>
  <text x="290" y="246" font-family="monospace" font-size="10" fill="#c4d4f0">$87.500</text>
  <text x="430" y="246" font-family="monospace" font-size="10" fill="#c4d4f0">$87.500</text>
  <text x="570" y="246" font-family="monospace" font-size="10" fill="#22c55e">$0</text>
  <rect x="698" y="232" width="64" height="18" rx="9" fill="#14532d"/>
  <text x="730" y="245" font-family="monospace" font-size="9" fill="#4ade80" text-anchor="middle">✓ OK</text>
  <rect x="24" y="262" width="752" height="30" rx="4" fill="#0d1528"/>
  <text x="28" y="282" font-family="monospace" font-size="10" fill="#94a3b8">2025-04-02</text>
  <text x="130" y="282" font-family="monospace" font-size="10" fill="#c4d4f0">TRX-00443</text>
  <text x="290" y="282" font-family="monospace" font-size="10" fill="#fca5a5">$210.000</text>
  <text x="430" y="282" font-family="monospace" font-size="10" fill="#fca5a5">$209.500</text>
  <text x="570" y="282" font-family="monospace" font-size="10" fill="#f97316" font-weight="700">-$500</text>
  <rect x="698" y="268" width="72" height="18" rx="9" fill="#7c2d12"/>
  <text x="734" y="281" font-family="monospace" font-size="9" fill="#fb923c" text-anchor="middle">⚠ DIFER.</text>
  <rect x="24" y="298" width="752" height="30" rx="4" fill="#060910"/>
  <text x="28" y="318" font-family="monospace" font-size="10" fill="#94a3b8">2025-04-02</text>
  <text x="130" y="318" font-family="monospace" font-size="10" fill="#c4d4f0">TRX-00444</text>
  <text x="290" y="318" font-family="monospace" font-size="10" fill="#c4d4f0">$56.200</text>
  <text x="430" y="318" font-family="monospace" font-size="10" fill="#c4d4f0">$56.200</text>
  <text x="570" y="318" font-family="monospace" font-size="10" fill="#22c55e">$0</text>
  <rect x="698" y="304" width="64" height="18" rx="9" fill="#14532d"/>
  <text x="730" y="317" font-family="monospace" font-size="9" fill="#4ade80" text-anchor="middle">✓ OK</text>
  <rect x="24" y="334" width="752" height="30" rx="4" fill="#0d1528"/>
  <text x="28" y="354" font-family="monospace" font-size="10" fill="#94a3b8">2025-04-03</text>
  <text x="130" y="354" font-family="monospace" font-size="10" fill="#c4d4f0">TRX-00445</text>
  <text x="290" y="354" font-family="monospace" font-size="10" fill="#c4d4f0">$340.000</text>
  <text x="430" y="354" font-family="monospace" font-size="10" fill="#c4d4f0">$340.000</text>
  <text x="570" y="354" font-family="monospace" font-size="10" fill="#22c55e">$0</text>
  <rect x="698" y="340" width="64" height="18" rx="9" fill="#14532d"/>
  <text x="730" y="353" font-family="monospace" font-size="9" fill="#4ade80" text-anchor="middle">✓ OK</text>
  <!-- Footer -->
  <rect x="0" y="440" width="800" height="40" fill="#0a0f1c"/>
  <text x="20" y="465" font-family="monospace" font-size="10" fill="#60a5fa">● React · Vercel · Render · Conciliación automática vaucher ↔ extracto</text>
</svg>
